# Blender v3.0.1 OBJ File: ''
# www.blender.org
mtllib torus.mtl
v 0.990000 0.000000 0.000000
v 0.740000 0.250000 0.000000
v 0.490000 0.000000 0.000000
v 0.740000 -0.250000 0.000000
v 0.700036 0.000000 -0.700036
v 0.523259 0.250000 -0.523259
v 0.346482 0.000000 -0.346482
v 0.523259 -0.250000 -0.523259
v 0.000000 0.000000 -0.990000
v 0.000000 0.250000 -0.740000
v 0.000000 0.000000 -0.490000
v 0.000000 -0.250000 -0.740000
v -0.700036 0.000000 -0.700036
v -0.523259 0.250000 -0.523259
v -0.346482 0.000000 -0.346482
v -0.523259 -0.250000 -0.523259
v -0.990000 0.000000 -0.000000
v -0.740000 0.250000 -0.000000
v -0.490000 0.000000 -0.000000
v -0.740000 -0.250000 -0.000000
v -0.700036 0.000000 0.700036
v -0.523259 0.250000 0.523259
v -0.346482 0.000000 0.346482
v -0.523259 -0.250000 0.523259
v 0.000000 0.000000 0.990000
v 0.000000 0.250000 0.740000
v 0.000000 0.000000 0.490000
v 0.000000 -0.250000 0.740000
v 0.700035 0.000000 0.700036
v 0.523259 0.250000 0.523259
v 0.346482 0.000000 0.346483
v 0.523259 -0.250000 0.523259
vt 0.500000 0.500000
vt 0.625000 0.500000
vt 0.625000 0.750000
vt 0.500000 0.750000
vt 0.625000 1.000000
vt 0.500000 1.000000
vt 0.500000 0.000000
vt 0.625000 0.000000
vt 0.625000 0.250000
vt 0.500000 0.250000
vt 0.750000 0.500000
vt 0.750000 0.750000
vt 0.750000 1.000000
vt 0.750000 0.000000
vt 0.750000 0.250000
vt 0.875000 0.500000
vt 0.875000 0.750000
vt 0.875000 1.000000
vt 0.875000 0.000000
vt 0.875000 0.250000
vt 1.000000 0.500000
vt 1.000000 0.750000
vt 1.000000 1.000000
vt 1.000000 0.000000
vt 1.000000 0.250000
vt 0.000000 0.500000
vt 0.125000 0.500000
vt 0.125000 0.750000
vt 0.000000 0.750000
vt 0.125000 1.000000
vt 0.000000 1.000000
vt 0.000000 0.000000
vt 0.125000 0.000000
vt 0.125000 0.250000
vt 0.000000 0.250000
vt 0.250000 0.500000
vt 0.250000 0.750000
vt 0.250000 1.000000
vt 0.250000 0.000000
vt 0.250000 0.250000
vt 0.375000 0.500000
vt 0.375000 0.750000
vt 0.375000 1.000000
vt 0.375000 0.000000
vt 0.375000 0.250000
vn 0.6786 0.6786 -0.2811
vn -0.6786 0.6786 0.2811
vn -0.6786 -0.6786 0.2811
vn 0.6786 -0.6786 -0.2811
vn 0.2811 0.6786 -0.6786
vn -0.2811 0.6786 0.6786
vn -0.2811 -0.6786 0.6786
vn 0.2811 -0.6786 -0.6786
vn -0.2811 0.6786 -0.6786
vn 0.2811 0.6786 0.6786
vn 0.2811 -0.6786 0.6786
vn -0.2811 -0.6786 -0.6786
vn -0.6786 0.6786 -0.2811
vn 0.6786 0.6786 0.2811
vn 0.6786 -0.6786 0.2811
vn -0.6786 -0.6786 -0.2811
usemtl None
s off
f 1/1/1 5/2/1 6/3/1 2/4/1
f 2/4/2 6/3/2 7/5/2 3/6/2
f 3/7/3 7/8/3 8/9/3 4/10/3
f 4/10/4 8/9/4 5/2/4 1/1/4
f 5/2/5 9/11/5 10/12/5 6/3/5
f 6/3/6 10/12/6 11/13/6 7/5/6
f 7/8/7 11/14/7 12/15/7 8/9/7
f 8/9/8 12/15/8 9/11/8 5/2/8
f 9/11/9 13/16/9 14/17/9 10/12/9
f 10/12/10 14/17/10 15/18/10 11/13/10
f 11/14/11 15/19/11 16/20/11 12/15/11
f 12/15/12 16/20/12 13/16/12 9/11/12
f 13/16/13 17/21/13 18/22/13 14/17/13
f 14/17/14 18/22/14 19/23/14 15/18/14
f 15/19/15 19/24/15 20/25/15 16/20/15
f 16/20/16 20/25/16 17/21/16 13/16/16
f 17/26/2 21/27/2 22/28/2 18/29/2
f 18/29/1 22/28/1 23/30/1 19/31/1
f 19/32/4 23/33/4 24/34/4 20/35/4
f 20/35/3 24/34/3 21/27/3 17/26/3
f 21/27/6 25/36/6 26/37/6 22/28/6
f 22/28/5 26/37/5 27/38/5 23/30/5
f 23/33/8 27/39/8 28/40/8 24/34/8
f 24/34/7 28/40/7 25/36/7 21/27/7
f 25/36/10 29/41/10 30/42/10 26/37/10
f 26/37/9 30/42/9 31/43/9 27/38/9
f 27/39/12 31/44/12 32/45/12 28/40/12
f 28/40/11 32/45/11 29/41/11 25/36/11
f 29/41/14 1/1/14 2/4/14 30/42/14
f 30/42/13 2/4/13 3/6/13 31/43/13
f 31/44/16 3/7/16 4/10/16 32/45/16
f 32/45/15 4/10/15 1/1/15 29/41/15
